<?xml version="1.0" encoding="UTF-8" standalone="no"?>
<!-- Generator: Adobe Illustrator 22.0.0, SVG Export Plug-In . SVG Version: 6.00 Build 0)  -->

<svg
   xmlns:dc="http://purl.org/dc/elements/1.1/"
   xmlns:cc="http://creativecommons.org/ns#"
   xmlns:rdf="http://www.w3.org/1999/02/22-rdf-syntax-ns#"
   xmlns:svg="http://www.w3.org/2000/svg"
   xmlns="http://www.w3.org/2000/svg"
   xmlns:sodipodi="http://sodipodi.sourceforge.net/DTD/sodipodi-0.dtd"
   xmlns:inkscape="http://www.inkscape.org/namespaces/inkscape"
   version="1.1"
   id="Capa_1"
   x="0px"
   y="0px"
   viewBox="0 0 345.06937 337.65231"
   xml:space="preserve"
   sodipodi:docname="logo.svg"
   width="345.06937"
   height="337.65231"
   inkscape:version="0.92.4 (5da689c313, 2019-01-14)"><metadata
   id="metadata113"><rdf:RDF><cc:Work
       rdf:about=""><dc:format>image/svg+xml</dc:format><dc:type
         rdf:resource="http://purl.org/dc/dcmitype/StillImage" /><dc:title /></cc:Work></rdf:RDF></metadata><defs
   id="defs111" /><sodipodi:namedview
   pagecolor="#ffffff"
   bordercolor="#666666"
   borderopacity="1"
   objecttolerance="10"
   gridtolerance="10"
   guidetolerance="10"
   inkscape:pageopacity="0"
   inkscape:pageshadow="2"
   inkscape:window-width="1920"
   inkscape:window-height="1017"
   id="namedview109"
   showgrid="false"
   fit-margin-top="0"
   fit-margin-left="0"
   fit-margin-right="0"
   fit-margin-bottom="0"
   inkscape:zoom="0.86915208"
   inkscape:cx="-279.47695"
   inkscape:cy="177.57274"
   inkscape:window-x="-8"
   inkscape:window-y="-8"
   inkscape:window-maximized="1"
   inkscape:current-layer="g28" />
<style
   type="text/css"
   id="style2">
	.st0{fill:#010202;}
	.st1{fill:#FFFFFF;}
	.st2{fill:#020203;}
	.st3{fill:#030304;}
	.st4{fill:#040405;}
	.st5{fill:#050507;}
	.st6{fill:#080809;}
	.st7{fill:#020304;}
	.st8{fill:#030404;}
	.st9{fill:#070708;}
</style>
<g
   id="g28"
   transform="translate(-70.278597,-35.7)">
	<path
   style="fill:#010202"
   d="M 177.32227 0 C 171.72227 0.1 166.1207 0.49921875 160.2207 1.1992188 C 149.2207 2.3992187 138.42188 4.3996094 127.92188 8.0996094 C 110.52188 14.199609 94.421094 22.7 79.121094 33 C 20.721094 72.3 -10.178516 142.60078 3.0214844 210.30078 C 11.021484 251.30078 32.021094 284.39922 66.121094 308.69922 C 87.521094 323.89922 111.52148 332.7 137.52148 336 C 153.42148 338 169.42227 338.10078 185.32227 335.30078 C 189.22227 334.60078 192.92109 333.90078 196.62109 336.80078 C 199.02109 338.70078 202.32148 337.2 202.52148 334.5 C 202.82148 331.4 204.6207 331.19961 206.7207 330.59961 C 233.1207 322.89961 256.52188 309.80039 276.92188 291.40039 C 308.42188 263.00039 327.52188 227.70039 334.42188 185.90039 C 335.12188 181.30039 335.02227 177.4 341.32227 176.5 C 345.62227 175.9 346.22109 170.60039 343.12109 167.40039 C 342.22109 166.50039 341.12148 165.50078 340.02148 165.30078 C 336.72148 164.60078 336.52148 162.39961 336.52148 159.59961 C 336.52148 149.59961 335.52109 139.60078 333.62109 129.80078 C 327.42109 97.700781 314.12148 68.900391 290.52148 45.900391 C 259.12148 15.300391 220.52227 1.7 177.32227 0 z M 177.10352 14.097656 C 189.18164 13.975586 201.2207 15.1875 213.2207 18 C 241.0207 24.4 263.9207 39.099219 283.2207 59.699219 C 305.0207 82.999219 317.92187 110.39922 321.42188 142.19922 C 322.12187 148.39922 322.52148 154.50078 322.02148 161.30078 C 303.82148 159.10078 286.02188 158.79961 268.42188 156.09961 C 228.42188 150.09961 192.62109 135.10078 163.62109 106.30078 C 141.62109 84.500781 129.42227 58 126.82227 27 C 126.62227 24.1 127.42148 22.800781 130.02148 21.800781 C 138.22148 18.600781 146.72227 16.899219 155.32227 15.699219 C 162.59727 14.724219 169.85664 14.170898 177.10352 14.097656 z M 114.52148 25.099609 C 114.32148 31.099609 113.52109 36.399609 114.12109 41.599609 C 116.02109 60.199609 122.62227 77.2 132.32227 93 C 146.02227 115.2 164.42109 132.70039 186.62109 146.40039 C 198.22109 153.50039 210.1207 160.09922 223.2207 164.19922 C 242.6207 170.29922 262.22188 175.19961 282.92188 175.09961 C 295.12187 174.99961 307.22187 176.20078 319.42188 176.80078 C 319.92188 176.80078 320.4207 177.10078 321.2207 177.30078 C 320.2207 188.40078 317.9207 199.19961 314.2207 209.59961 C 294.3207 264.79961 256.82227 301.9 200.32227 319 C 199.32227 319.3 198.1207 319.40078 197.2207 319.80078 C 194.4207 321.10078 192.62109 320.19961 190.62109 318.09961 C 186.02109 313.19961 181.12148 308.59961 176.52148 303.59961 C 159.52148 285.09961 140.02187 269.89922 117.42188 258.69922 C 100.52187 250.29922 82.721094 245.20039 63.621094 245.40039 C 53.421094 245.50039 43.322266 245.59922 33.322266 247.69922 C 30.822266 248.19922 29.720703 247.50039 28.720703 245.40039 C 21.220703 229.90039 16.321875 213.6 14.421875 196.5 C 6.121875 124.7 47.720703 56.500781 110.7207 26.800781 C 111.6207 26.500781 112.72148 25.999609 114.52148 25.099609 z M 93.783203 77.650391 C 92.845703 77.600391 91.921484 77.849609 91.021484 78.599609 C 89.321484 80.099609 89.220703 82.099609 90.220703 84.099609 C 91.120703 85.899609 92.021094 87.700781 93.121094 89.300781 C 96.021094 93.500781 98.921875 97.599219 101.92188 101.69922 C 109.02188 111.59922 116.32188 121.2 122.92188 131.5 C 125.62188 135.8 128.42109 140.10039 130.12109 144.90039 C 131.42109 148.70039 130.52148 150.20078 126.52148 150.80078 C 122.82148 151.40078 119.22227 150.80039 115.82227 149.40039 C 109.22227 146.70039 102.9207 143.39922 97.220703 139.19922 C 91.120703 134.59922 85.121484 129.90078 79.021484 125.30078 C 77.121484 123.80078 75.221094 122.40039 73.121094 121.40039 C 70.921094 120.40039 68.521094 120.40039 66.621094 122.40039 C 64.721094 124.40039 64.822266 126.7 65.822266 129 C 66.722266 131.3 68.421094 133.29922 70.121094 135.19922 C 81.721094 147.49922 95.321094 156.89961 111.12109 163.09961 C 115.02109 164.59961 119.12227 165.2 124.32227 165.5 C 125.72227 165.4 128.12187 165.3 130.42188 165 C 140.62187 163 146.02148 155.29961 144.02148 145.09961 C 142.52148 137.59961 139.42148 130.90078 135.02148 124.80078 C 129.92148 117.50078 124.6207 110.40078 119.2207 103.30078 C 113.9207 96.400781 108.52187 89.500781 102.42188 83.300781 C 100.72187 81.500781 98.921094 79.7 96.621094 78.5 C 95.671094 78.05 94.720703 77.700391 93.783203 77.650391 z M 51.310547 161.08984 C 49.221094 161.07871 47.121484 161.34961 45.021484 162.09961 C 40.921484 163.79961 41.221094 168.09961 42.621094 170.09961 C 43.421094 171.39961 44.521875 171.7 45.921875 172.5 C 47.521875 173.4 49.621484 174.09922 51.521484 174.69922 C 63.921484 178.89922 76.221094 183.09922 88.621094 187.19922 C 95.021094 189.29922 101.3207 191.50078 107.2207 194.80078 C 110.6207 196.70078 113.72148 198.80039 116.02148 201.90039 C 118.72148 205.60039 118.12227 208.6 114.32227 211 C 112.32227 212.3 110.0207 212.90039 107.7207 213.40039 C 102.3207 214.70039 97.021094 214.60078 91.621094 212.80078 C 88.521094 211.70078 85.321875 211.00078 81.921875 211.80078 C 78.521875 212.60078 77.521094 215.2 79.621094 218 C 80.721094 219.4 82.121094 220.69922 83.621094 221.69922 C 96.121094 229.69922 110.62227 229.39922 122.32227 222.19922 C 133.02227 215.59922 135.4207 204.00078 128.7207 193.30078 C 126.4207 189.60078 123.42148 186.39961 120.02148 183.59961 C 114.32148 178.89961 108.02148 175.49961 101.02148 173.09961 C 88.121484 168.69961 75.021094 165.19961 61.621094 162.59961 C 58.246094 161.91211 54.792969 161.1084 51.310547 161.08984 z M 271.46484 189.64844 C 270.81055 189.61426 270.14648 189.88672 269.52148 190.19922 C 265.12148 192.59922 264.52188 199.40078 268.42188 202.80078 C 271.72188 205.60078 275.52148 206.20078 279.52148 204.30078 C 282.52148 203.00078 285.42188 201.40078 288.42188 200.30078 C 291.02188 199.30078 291.72188 199.99922 291.42188 202.69922 C 290.92188 206.19922 289.62148 209.39961 288.52148 212.59961 C 287.92148 214.49961 286.9207 216.60039 289.2207 217.90039 C 291.7207 219.30039 293.22148 217.2 294.52148 215.5 C 296.62148 212.7 297.9207 209.50078 299.2207 206.30078 C 300.3207 203.60078 301.5207 200.99922 301.7207 198.19922 C 301.5207 192.39922 296.42227 188.9 290.32227 190.5 C 285.72227 191.7 281.72109 194.20078 278.12109 197.30078 C 276.52109 198.70078 274.82227 199.69922 272.82227 198.19922 C 270.92227 196.69922 271.12227 194.80039 272.32227 192.90039 C 272.82227 192.00039 273.92109 191.09961 272.62109 190.09961 C 272.24609 189.79961 271.85742 189.66895 271.46484 189.64844 z M 249.12109 210.30078 C 247.02109 210.40078 245.92188 211.5 245.92188 213.5 C 245.92188 215.5 247.12109 216.6 249.12109 217 C 251.02109 216.8 252.22148 215.80039 252.52148 213.90039 C 252.92148 212.00039 251.22109 210.20078 249.12109 210.30078 z M 262.2207 217 C 257.9207 217.1 256.7207 219.19922 258.2207 222.19922 C 259.2207 224.39922 260.92188 226.10078 262.92188 227.30078 C 268.32188 230.50078 273.82227 233.59922 279.32227 236.69922 C 279.92227 236.99922 280.62227 237.3 281.32227 237.5 C 282.82227 238 284.12109 237.39922 285.12109 236.19922 C 286.12109 234.89922 286.02148 233.49922 285.02148 232.19922 C 284.42148 231.49922 283.82109 230.80078 283.12109 230.30078 C 277.82109 226.50078 272.5207 222.7 267.2207 219 C 265.4207 217.8 263.4207 216.9 262.2207 217 z M 249.85938 227.09961 C 248.92188 227.02461 248.0207 227.29922 247.2207 228.19922 C 245.4207 230.09922 246.22148 232.19961 247.52148 234.09961 C 249.42148 236.89961 252.22148 238.60078 255.02148 240.30078 C 255.82148 240.90078 256.22188 241.40078 254.92188 241.30078 C 250.72188 241.20078 244.62187 239.6 240.42188 240 C 239.02188 240.1 237.52188 240.10078 236.42188 241.30078 C 232.72188 245.30078 232.72148 248.70039 237.02148 252.40039 C 242.52148 257.10039 248.32148 261.5 254.02148 266 C 254.72148 266.5 255.52227 267.00078 256.32227 267.30078 C 257.72227 267.80078 259.32227 267.9 260.32227 266.5 C 261.32227 265.2 261.0207 263.60039 260.2207 262.40039 C 259.3207 261.00039 258.12187 259.90078 256.92188 258.80078 C 253.12188 255.30078 249.32148 251.80039 245.52148 248.40039 C 245.82148 247.90039 245.92148 247.69922 246.02148 247.69922 C 255.02148 248.99922 264.4207 247.49961 273.2207 251.09961 C 273.8207 251.39961 274.62227 251.50039 275.32227 251.40039 C 277.42227 251.20039 278.52188 249.3 277.42188 247.5 C 276.92188 246.7 276.32109 246 275.62109 245.5 C 268.82109 240.1 262.02109 234.70039 255.12109 229.40039 C 254.42109 228.90039 253.5207 228.49961 252.7207 228.09961 C 251.7707 227.59961 250.79688 227.17461 249.85938 227.09961 z M 227.82227 249.09961 C 227.29727 249.09961 226.7707 249.20039 226.2207 249.40039 C 221.5207 251.00039 217.22227 253.30078 213.32227 256.30078 C 212.12227 257.20078 211.22227 258.4 211.32227 260 C 211.52227 263.8 211.62227 267.50039 214.82227 270.40039 C 219.32227 274.60039 223.52148 279.20039 228.02148 283.40039 C 232.02148 287.20039 237.2207 287.4 241.7207 284 C 244.0207 282.3 246.22227 280.40039 248.32227 278.40039 C 249.22227 277.50039 250.02148 276.40078 250.52148 275.30078 C 251.42148 273.00078 249.92148 271.19922 247.52148 271.69922 C 246.52148 271.89922 245.52109 272.5 244.62109 273 C 241.22109 275 237.8207 277.10078 234.2207 279.30078 C 232.4207 276.90078 230.72109 274.70078 229.12109 272.30078 C 231.52109 271.00078 233.42188 269.70078 234.92188 267.80078 C 235.52187 267.00078 235.9207 266.10078 235.2207 265.30078 C 234.6207 264.60078 233.82227 264.29961 232.82227 264.59961 C 230.32227 265.29961 228.4207 266.90039 226.2207 268.40039 C 224.4207 266.10039 222.72148 263.8 221.02148 261.5 C 224.22148 259.1 227.22188 256.99961 229.92188 254.59961 C 232.02188 252.69961 231.72188 250.30039 229.42188 249.40039 C 228.87187 249.20039 228.34727 249.09961 227.82227 249.09961 z M 47.009766 257.23047 C 63.645068 257.3114 79.264844 260.58047 94.621094 265.69922 C 117.42109 273.39922 137.7207 285.40078 155.7207 301.30078 C 163.6207 308.20078 171.32148 315.29922 180.02148 323.19922 C 156.82148 327.09922 135.12187 325.20039 113.92188 318.40039 C 80.721875 307.90039 54.822266 287.59922 35.322266 257.69922 C 39.278516 257.36172 43.17085 257.21179 47.009766 257.23047 z M 204.88477 266.02539 C 203.99727 265.97539 203.07227 266.24961 202.32227 266.59961 C 196.12227 269.69961 190.4207 273.39961 185.7207 278.59961 C 184.3207 280.19961 183.82188 282.1 185.42188 284 C 186.92187 285.8 188.92227 285.80078 190.82227 284.80078 C 192.52227 283.90078 194.12227 282.7 195.82227 281.5 C 198.42227 287.1 202.72188 290.90039 206.92188 294.90039 C 207.82188 295.80039 208.72148 296.6 210.02148 297 C 211.52148 297.4 212.92109 297.40039 214.12109 296.40039 C 215.32109 295.30039 215.42188 293.90039 214.92188 292.40039 C 214.62188 291.60039 214.2207 290.7 213.7207 290 C 210.3207 285.1 207.32109 279.90078 202.12109 275.80078 C 203.62109 274.50078 204.82148 273.40078 206.02148 272.30078 C 207.32148 270.90078 208.3207 269.20039 207.2207 267.40039 C 206.6207 266.45039 205.77227 266.07539 204.88477 266.02539 z "
   transform="translate(70.278597,35.7)"
   id="path4" />
	
	
	
	
	
	
	
	
	
	
	
</g>



</svg>